HIERARCHY
ROOT pelvis
{
	OFFSET 0.000000 0.924753 -0.000000
	CHANNELS 6 Xposition Yposition Zposition Xrotation Yrotation Zrotation
	JOINT spine
	{
		OFFSET 0.000000 0.000000 0.000000
		CHANNELS 6 Xposition Yposition Zposition Xrotation Yrotation Zrotation
		JOINT spine.001
		{
			OFFSET 0.000000 0.276682 0.014500
			CHANNELS 3 Xrotation Yrotation Zrotation
			JOINT neck
			{
				OFFSET 0.000000 0.274997 -0.033765
				CHANNELS 6 Xposition Yposition Zposition Xrotation Yrotation Zrotation
				JOINT face
				{
					OFFSET 0.000000 0.215541 -0.003762
					CHANNELS 6 Xposition Yposition Zposition Xrotation Yrotation Zrotation
					End Site
					{
						OFFSET 0.000000 -0.008818 0.037497
					}
				}
			}
			JOINT shoulder.L
			{
				OFFSET 0.000000 0.274997 -0.033765
				CHANNELS 6 Xposition Yposition Zposition Yrotation Xrotation Zrotation
				JOINT upper_arm.L
				{
					OFFSET 0.180307 0.000000 0.000000
					CHANNELS 6 Xposition Yposition Zposition Xrotation Yrotation Zrotation
					JOINT forearm.L
					{
						OFFSET 0.298295 0.001098 -0.000132
						CHANNELS 6 Xposition Yposition Zposition Xrotation Yrotation Zrotation
						End Site
						{
							OFFSET 0.260481 -0.001511 0.004425
						}
					}
				}
			}
			JOINT shoulder.R
			{
				OFFSET 0.000000 0.274997 -0.033765
				CHANNELS 6 Xposition Yposition Zposition Yrotation Xrotation Zrotation
				JOINT upper_arm.R
				{
					OFFSET -0.180307 0.000000 0.000000
					CHANNELS 6 Xposition Yposition Zposition Xrotation Yrotation Zrotation
					JOINT forearm.R
					{
						OFFSET -0.295075 0.001098 -0.000132
						CHANNELS 6 Xposition Yposition Zposition Xrotation Yrotation Zrotation
						End Site
						{
							OFFSET -0.269439 -0.001512 0.004582
						}
					}
				}
			}
		}
	}
	JOINT pelvis.L
	{
		OFFSET 0.000000 0.000000 0.000000
		CHANNELS 6 Xposition Yposition Zposition Yrotation Xrotation Zrotation
		End Site
		{
			OFFSET 0.105933 0.000000 0.000000
		}
	}
	JOINT pelvis.R
	{
		OFFSET 0.000000 0.000000 0.000000
		CHANNELS 6 Xposition Yposition Zposition Yrotation Xrotation Zrotation
		End Site
		{
			OFFSET -0.105933 0.000000 0.000000
		}
	}
	JOINT thigh.L
	{
		OFFSET 0.105933 0.000000 0.000000
		CHANNELS 6 Xposition Yposition Zposition Xrotation Yrotation Zrotation
		JOINT shin.L
		{
			OFFSET 0.022250 -0.424548 0.000000
			CHANNELS 6 Xposition Yposition Zposition Xrotation Yrotation Zrotation
			JOINT foot.L
			{
				OFFSET 0.021374 -0.407838 0.000000
				CHANNELS 6 Xposition Yposition Zposition Xrotation Yrotation Zrotation
				End Site
				{
					OFFSET 0.018740 -0.080234 0.191071
				}
			}
		}
	}
	JOINT thigh.R
	{
		OFFSET -0.105933 0.000000 0.000000
		CHANNELS 6 Xposition Yposition Zposition Xrotation Yrotation Zrotation
		JOINT shin.R
		{
			OFFSET -0.022137 -0.422396 0.000000
			CHANNELS 6 Xposition Yposition Zposition Xrotation Yrotation Zrotation
			JOINT foot.R
			{
				OFFSET -0.022337 -0.426218 0.000000
				CHANNELS 6 Xposition Yposition Zposition Xrotation Yrotation Zrotation
				End Site
				{
					OFFSET -0.019568 -0.083780 0.199517
				}
			}
		}
	}
}
MOTION
Frames: 7
Frame Time: 0.041667
0.041264 -0.017597 0.014489 -0.000000 2.045194 -0.000000 0.000000 -0.000000 0.000000 -8.887859 0.531854 -4.069000 10.000104 -0.170290 0.020940 0.000000 0.274997 -0.033765 11.983711 -6.751441 2.722800 0.000000 0.215540 -0.003762 3.814904 -0.000002 -0.000000 0.000000 0.274997 -0.033765 -0.071235 -0.000361 -0.580458 0.180307 -0.000000 -0.000000 -4.415089 -5.333784 -79.109867 0.298295 0.001098 -0.000132 -10.493456 -32.504266 -36.117569 0.000000 0.274996 -0.033765 -0.077958 -0.000432 -0.634780 -0.180307 0.000000 -0.000000 -3.313329 3.918754 80.113782 -0.295075 0.001098 -0.000132 -11.780681 34.696111 37.639984 -0.000000 0.000000 0.000000 0.000020 0.000000 -3.084980 0.000000 0.000000 0.000000 0.000000 -0.000000 -3.084980 0.105780 -0.005701 0.000000 5.152171 0.078463 -4.256013 0.022250 -0.424548 0.000000 -0.009646 -0.000837 3.959316 0.021374 -0.407838 0.000000 -7.991455 10.157047 5.889053 -0.105780 0.005701 0.000000 3.141599 -0.233914 -2.514202 -0.022137 -0.422396 0.000000 4.514212 -0.323983 -2.205720 -0.022337 -0.426218 0.000000 -8.289626 -10.295771 -6.022213 
0.041706 -0.018486 0.014184 -0.000000 1.904727 -0.000000 0.000000 0.000000 0.000000 -8.958362 0.534136 -4.067012 10.000006 -0.112024 0.013757 0.000000 0.274997 -0.033765 12.398721 -7.769204 2.718290 -0.000000 0.215541 -0.003762 3.542370 0.000000 0.000001 0.000000 0.274997 -0.033765 -0.077071 -0.000421 -0.627551 0.180307 0.000000 -0.000000 -4.157585 -5.028801 -79.010208 0.298295 0.001098 -0.000132 -10.555592 -31.909530 -37.044569 0.000000 0.274996 -0.033765 -0.083750 -0.000498 -0.681873 -0.180307 0.000000 0.000000 -3.620736 4.310561 79.809592 -0.295075 0.001098 -0.000132 -11.611111 33.696127 38.298681 0.000000 -0.000000 0.000000 -0.000169 -0.000005 -3.522146 0.000000 0.000000 0.000000 0.000000 -0.000000 -3.522149 0.105733 -0.006508 -0.000000 5.396102 0.089418 -4.102629 0.022250 -0.424548 0.000000 -0.459099 -0.038425 3.569769 0.021374 -0.407838 0.000000 -7.349355 10.528590 5.934704 -0.105733 0.006508 0.000000 3.131124 -0.228948 -2.361819 -0.022137 -0.422396 0.000000 4.503912 -0.332180 -2.431827 -0.022337 -0.426218 0.000000 -7.972765 -10.447151 -6.029323 
0.041989 -0.018826 0.013919 -0.000000 1.816354 -0.000000 -0.000000 -0.000000 0.000000 -8.998660 0.535932 -4.069608 10.000016 -0.104728 0.012862 -0.000000 0.274997 -0.033765 12.650204 -8.532899 2.740597 -0.000000 0.215540 -0.003762 3.350812 0.000004 -0.000001 -0.000000 0.274996 -0.033765 -0.080958 -0.000464 -0.659178 0.180307 0.000000 -0.000000 -3.884338 -4.699216 -78.961891 0.298295 0.001098 -0.000132 -10.625505 -31.562352 -37.713859 -0.000000 0.274996 -0.033765 -0.087609 -0.000546 -0.713499 -0.180307 0.000000 0.000000 -3.861830 4.621409 79.561185 -0.295075 0.001098 -0.000132 -11.527483 33.039756 38.838593 -0.000000 0.000000 0.000000 0.000062 0.000002 -3.792761 -0.000000 0.000000 0.000000 -0.000000 -0.000000 -3.792760 0.105701 -0.007007 0.000000 5.569556 0.096620 -4.013700 0.022250 -0.424548 0.000000 -0.790130 -0.064473 3.330223 0.021374 -0.407838 0.000000 -6.813607 10.804884 5.953140 -0.105701 0.007007 -0.000000 3.115826 -0.225225 -2.266578 -0.022137 -0.422396 0.000000 4.508332 -0.336509 -2.532988 -0.022337 -0.426218 0.000000 -7.805490 -10.587018 -6.062429 
0.042099 -0.018680 0.013739 -0.000000 1.775745 -0.000000 -0.000000 -0.000000 0.000000 -9.009442 0.537547 -4.078852 10.000123 -0.151625 0.018659 -0.000000 0.274997 -0.033765 12.751874 -9.008490 2.780658 0.000000 0.215541 -0.003762 3.237477 0.000004 -0.000001 -0.000000 0.274997 -0.033765 -0.081465 -0.000467 -0.664042 0.180307 -0.000000 0.000000 -3.613191 -4.366480 -78.977525 0.298295 0.001098 -0.000132 -10.711488 -31.487524 -38.099205 -0.000000 0.274997 -0.033765 -0.088211 -0.000546 -0.718402 -0.180307 -0.000000 -0.000000 -4.020591 4.829605 79.375145 -0.295075 0.001098 -0.000132 -11.532137 32.750521 39.215862 0.000000 -0.000000 0.000000 -0.000027 -0.000001 -3.880741 0.000000 0.000000 0.000000 0.000000 -0.000000 -3.880742 0.105690 -0.007169 -0.000000 5.664532 0.099424 -3.990482 0.022250 -0.424548 0.000000 -0.974355 -0.078817 3.249216 0.021374 -0.407838 0.000000 -6.432884 10.973330 5.951244 -0.105690 0.007170 0.000000 3.100418 -0.223190 -2.232656 -0.022137 -0.422396 0.000000 4.523555 -0.336634 -2.507480 -0.022337 -0.426218 0.000000 -7.803709 -10.698779 -6.117416 
0.042149 -0.018500 0.013674 -0.000000 1.735322 -0.000000 0.000000 0.000000 0.000000 -9.011316 0.539225 -4.091063 10.000074 -0.222619 0.027355 -0.000000 0.274997 -0.033765 12.817126 -9.316051 2.806021 -0.000000 0.215541 -0.003762 3.171375 0.000001 -0.000000 -0.000000 0.274996 -0.033765 -0.079260 -0.000446 -0.645365 0.180307 0.000000 -0.000000 -3.382658 -4.080484 -79.034052 0.298295 0.001098 -0.000132 -10.794930 -31.551864 -38.297550 -0.000000 0.274996 -0.033765 -0.085947 -0.000524 -0.699686 -0.180307 -0.000000 -0.000000 -4.131451 4.977660 79.223576 -0.295075 0.001098 -0.000132 -11.556140 32.611332 39.469751 -0.000000 0.000000 0.000000 0.000111 0.000004 -3.888623 0.000000 0.000000 0.000000 0.000000 -0.000000 -3.888600 0.105689 -0.007184 0.000000 5.717973 0.100149 -3.994730 0.022250 -0.424548 0.000000 -1.062664 -0.085795 3.231501 0.021374 -0.407838 0.000000 -6.188319 11.095354 5.956072 -0.105689 0.007184 0.000000 3.091309 -0.222442 -2.229409 -0.022137 -0.422396 0.000000 4.534762 -0.334807 -2.440600 -0.022337 -0.426218 0.000000 -7.880855 -10.760450 -6.164894 
0.042240 -0.018516 0.013716 -0.000000 1.659870 -0.000000 -0.000000 0.000000 0.000000 -9.017126 0.540485 -4.099019 10.000112 -0.292467 0.035911 -0.000000 0.274997 -0.033765 12.891431 -9.504474 2.799182 -0.000000 0.215540 -0.003762 3.167819 -0.000004 -0.000002 -0.000000 0.274997 -0.033765 -0.076098 -0.000413 -0.619433 0.180307 0.000000 0.000000 -3.206845 -3.860861 -79.105038 0.298295 0.001098 -0.000132 -10.859190 -31.649748 -38.387405 -0.000000 0.274997 -0.033765 -0.082697 -0.000486 -0.673754 -0.180306 0.000000 -0.000000 -4.231754 5.111857 79.090613 -0.295075 0.001098 -0.000132 -11.552087 32.467270 39.641100 0.000000 -0.000000 0.000000 -0.000001 -0.000000 -3.897703 0.000000 0.000000 0.000000 0.000000 -0.000000 -3.897704 0.105688 -0.007201 0.000000 5.760430 0.100473 -4.003042 0.022250 -0.424548 0.000000 -1.108204 -0.089275 3.211483 0.021374 -0.407838 0.000000 -6.039858 11.220331 5.983030 -0.105688 0.007201 0.000000 3.084910 -0.222117 -2.234453 -0.022137 -0.422396 0.000000 4.537705 -0.333001 -2.389810 -0.022337 -0.426218 0.000000 -7.961244 -10.764692 -6.184659 
0.042382 -0.018602 0.013829 -0.000000 1.550666 -0.000000 -0.000000 0.000000 0.000000 -9.027756 0.540727 -4.097904 10.000068 -0.343349 0.042155 0.000000 0.274997 -0.033765 12.945262 -9.557277 2.770717 -0.000000 0.215540 -0.003762 3.253807 0.000006 0.000004 -0.000000 0.274997 -0.033765 -0.073898 -0.000389 -0.600866 0.180306 0.000000 -0.000000 -3.061692 -3.679122 -79.176072 0.298295 0.001098 -0.000132 -10.903995 -31.741713 -38.419288 0.000000 0.274996 -0.033765 -0.080496 -0.000462 -0.655189 -0.180307 0.000000 -0.000000 -4.323753 5.234151 78.983099 -0.295075 0.001098 -0.000132 -11.529331 32.331138 39.742883 0.000000 -0.000000 0.000000 -0.000066 -0.000002 -3.909725 0.000000 0.000000 0.000000 0.000000 -0.000000 -3.909727 0.105687 -0.007223 0.000000 5.800401 0.100351 -4.019335 0.022250 -0.424548 0.000000 -1.136457 -0.091388 3.195215 0.021374 -0.407838 0.000000 -5.953433 11.351704 6.026427 -0.105687 0.007223 0.000000 3.073640 -0.221629 -2.246379 -0.022137 -0.422396 0.000000 4.538050 -0.331451 -2.350335 -0.022337 -0.426218 0.000000 -8.025269 -10.724849 -6.178901 
